<?xml version="1.0" encoding="utf-8"?>

<svg version="1.1" xmlns="http://www.w3.org/2000/svg" x="0px" y="0px"
     viewBox="0 0 1000 1000" enable-background="new 0 0 1000 1000" xml:space="preserve" fill="currentColor">
  <g><g transform="translate(0.000000,511.000000) scale(0.100000,-0.100000)"><path d="M3455.5,4911c-730.9-104.8-1374.9-554.6-1725-1203.7c-109.9-207-237.7-339.9-347.6-368c-35.8-10.2-181.4-2.6-324.6,12.8c-557.1,61.3-858.7-92-940.5-477.9c-40.9-201.9-12.8-393.6,94.6-615.9C376,1908.2,866.7,1489.1,1457,1192.7c122.7-61.3,222.3-122.7,222.3-132.9c0-12.8-66.5-66.5-145.7-122.7c-480.4-329.7-920-943-1119.3-1553.8c-166.1-513.7-186.6-1183.2-51.1-1689.2c291.3-1104,1193.5-1934.6,2435.4-2248.9c506-127.8,1543.6-191.7,2292.4-143.1c1671.3,112.4,2875,564.8,3708.1,1395.3c518.8,518.8,851,1124.4,1006.9,1850.2c268.3,1231.8-51.1,2532.6-794.8,3235.3c-214.7,199.3-306.7,253-416.6,232.6c-102.2-20.4-173.8-94.6-355.2-373.1c-230-350.1-444.7-544.3-766.7-690C7018,748,6276.8,702,5627.7,837.4c-97.1,20.4-181.5,38.3-184,38.3c-35.8,0,25.6,107.3,184,319.4c370.6,493.2,480.4,805,483,1392.8c2.6,309.2-7.7,406.3-56.2,587.8c-207,771.8-779.5,1385.1-1525.7,1633C4163.4,4928.9,3815.8,4962.1,3455.5,4911z M3174.4,3178.3c109.9-48.6,255.6-199.3,296.5-301.6c40.9-107.3,28.1-334.8-28.1-439.6C3274,2102.4,2860,2030.9,2584,2286.5c-273.4,253-224.9,677.2,99.7,863.8C2842.2,3239.7,3015.9,3252.4,3174.4,3178.3z M8551.3-517c81.8-40.9,104.8-84.3,104.8-194.2c0-56.2-46-125.2-184-283.7c-935.3-1065.7-1896.2-1771-2806-2062.3c-408.9-130.4-615.9-163.6-1035-163.6c-431.9-2.5-690,38.3-1068.2,166.1c-383.3,127.8-1045.2,483-1180.7,633.8c-66.5,74.1-63.9,217.2,7.7,286.2c92,92,196.8,74.1,414-74.1c569.9-383.3,1213.9-595.4,1814.5-595.4c1144.9,0,2310.2,697.7,3608.5,2164.6C8375-473.6,8428.6-453.1,8551.3-517z"/></g></g>
</svg>
